<svg width="0" height="0" xmlns="http://www.w3.org/2000/svg">
    <symbol viewBox="0 0 32 32" fill="currentColor" id="logo">
        <path d="M19.2 4.26641L17.0667 4.26643V0H14.9333V4.26645H12.7998C5.73067 4.26652 1.95824e-05 9.9972 0 17.0663C-1.95818e-05 24.1355 5.73071 29.8662 12.7999 29.8662H19.2001C19.4786 29.8662 19.7552 29.8575 20.0295 29.8398L28.5414 31.9678C28.905 32.0587 29.2894 31.9522 29.5543 31.6873C29.8193 31.4223 29.9258 31.0379 29.8349 30.6743L28.6039 25.7502C30.711 23.4692 32 20.4175 32 17.0663C32 9.9971 26.2692 4.26635 19.2 4.26641ZM10.6667 13.8667C10.6667 10.9212 13.0545 8.53333 16 8.53333C18.9455 8.53333 21.3333 10.9212 21.3333 13.8667C21.3333 16.8122 18.9455 19.2 16 19.2C13.0545 19.2 10.6667 16.8122 10.6667 13.8667ZM16 25.6C13.7307 25.6 11.6428 24.8113 9.99949 23.494L11.3338 21.8295C12.6123 22.8544 14.2332 23.4667 16 23.4667C17.7667 23.4667 19.3876 22.8544 20.6661 21.8295L22.0004 23.494C20.3571 24.8113 18.2692 25.6 16 25.6Z"/>
    </symbol>

    <symbol viewBox="0 0 24 24" id="arrow-down-btn">
        <path d="M9.5 13.5L12 16M12 16L14.5 13.5M12 16V8"
              stroke="currentColor" stroke-width="1.5" stroke-linecap="round" stroke-linejoin="round" fill="none"/>
        <path d="M2.5 12C2.5 7.52166 2.5 5.28249 3.89124 3.89124C5.28249 2.5 7.52166 2.5 12 2.5C16.4783 2.5 18.7175 2.5 20.1088 3.89124C21.5 5.28249 21.5 7.52166 21.5 12C21.5 16.4783 21.5 18.7175 20.1088 20.1088C18.7175 21.5 16.4783 21.5 12 21.5C7.52166 21.5 5.28249 21.5 3.89124 20.1088C2.5 18.7175 2.5 16.4783 2.5 12Z"
              stroke="currentColor" stroke-width="1.5" fill="none"/>
    </symbol>

    <symbol viewBox="0 0 20 21" id="chat-lock">
        <path fill="none" d="M10.8334 2.34437C10.5593 2.31833 10.2813 2.30499 10.0001 2.30499C5.39823 2.30499 1.66675 5.87463 1.66675 10.2773C1.66675 12.3926 2.52786 14.3146 3.93249 15.7409C4.24175 16.055 4.44823 16.484 4.3649 16.9256C4.22737 17.6477 3.9157 18.3212 3.45934 18.8825C4.66004 19.1058 5.90853 18.9047 6.97924 18.3353C7.35773 18.134 7.54698 18.0334 7.68052 18.013C7.81406 17.9926 8.00535 18.0285 8.38793 18.1004C8.91945 18.2002 9.45899 18.2502 10.0001 18.2495C14.025 18.2495 17.5545 15.5188 18.3334 11.8883" stroke="currentColor" stroke-width="1.5" stroke-linecap="round" stroke-linejoin="round"/>
        <path fill="none" d="M13.4003 9.68605L13.096 10.3716L13.096 10.3716L13.4003 9.68605ZM12.611 8.84044L11.9115 9.11088L11.9115 9.11088L12.611 8.84044ZM18.2223 8.84044L18.9219 9.11088L18.9219 9.11088L18.2223 8.84044ZM17.4331 9.68605L17.7373 10.3716L17.7373 10.3716L17.4331 9.68605ZM17.4331 5.23643L17.7373 4.55091L17.7373 4.55091L17.4331 5.23643ZM18.2223 6.08205L18.9219 5.81161L18.9219 5.81161L18.2223 6.08205ZM13.4003 5.23643L13.096 4.55091L13.096 4.55091L13.4003 5.23643ZM12.611 6.08205L11.9115 5.81161L11.9115 5.81161L12.611 6.08205ZM13.2083 5.11749C13.2083 5.53171 13.5441 5.86749 13.9583 5.86749C14.3725 5.86749 14.7083 5.53171 14.7083 5.11749H13.2083ZM16.125 5.11749C16.125 5.53171 16.4608 5.86749 16.875 5.86749C17.2892 5.86749 17.625 5.53171 17.625 5.11749H16.125ZM14.6875 5.86749H16.1458V4.36749H14.6875V5.86749ZM16.1458 9.05499H14.6875V10.555H16.1458V9.05499ZM14.6875 9.05499C14.3368 9.05499 14.1139 9.05453 13.9442 9.04212C13.7824 9.03029 13.727 9.0105 13.7045 9.00053L13.096 10.3716C13.3415 10.4805 13.59 10.5202 13.8349 10.5381C14.0719 10.5555 14.3587 10.555 14.6875 10.555V9.05499ZM11.75 7.46124C11.75 7.81568 11.7496 8.11657 11.7654 8.36384C11.7815 8.61691 11.8167 8.86567 11.9115 9.11088L13.3106 8.56999C13.2943 8.52806 13.274 8.45124 13.2624 8.26851C13.2504 8.07998 13.25 7.83484 13.25 7.46124H11.75ZM13.7045 9.00053C13.5385 8.92688 13.3909 8.7779 13.3106 8.56999L11.9115 9.11088C12.1271 9.66868 12.5473 10.1281 13.096 10.3716L13.7045 9.00053ZM17.5833 7.46124C17.5833 7.83484 17.583 8.07998 17.571 8.26851C17.5593 8.45124 17.539 8.52806 17.5228 8.56999L18.9219 9.11088C19.0167 8.86567 19.0518 8.61691 19.0679 8.36384C19.0837 8.11657 19.0833 7.81568 19.0833 7.46124H17.5833ZM16.1458 10.555C16.4746 10.555 16.7614 10.5555 16.9984 10.5381C17.2433 10.5202 17.4918 10.4805 17.7373 10.3716L17.1288 9.00053C17.1064 9.0105 17.051 9.03029 16.8891 9.04212C16.7194 9.05453 16.4966 9.05499 16.1458 9.05499V10.555ZM17.5228 8.56999C17.4424 8.7779 17.2948 8.92688 17.1288 9.00053L17.7373 10.3716C18.286 10.1281 18.7062 9.66868 18.9219 9.11088L17.5228 8.56999ZM16.1458 5.86749C16.4966 5.86749 16.7194 5.86796 16.8891 5.88036C17.051 5.8922 17.1064 5.91198 17.1288 5.92195L17.7373 4.55091C17.4918 4.44194 17.2433 4.40226 16.9984 4.38436C16.7614 4.36703 16.4746 4.36749 16.1458 4.36749V5.86749ZM19.0833 7.46124C19.0833 7.10681 19.0837 6.80592 19.0679 6.55865C19.0518 6.30557 19.0167 6.05682 18.9219 5.81161L17.5228 6.35249C17.539 6.39442 17.5593 6.47125 17.571 6.65398C17.583 6.84251 17.5833 7.08764 17.5833 7.46124H19.0833ZM17.1288 5.92195C17.2948 5.99561 17.4424 6.14458 17.5228 6.35249L18.9219 5.81161C18.7062 5.2538 18.286 4.79442 17.7373 4.55091L17.1288 5.92195ZM14.6875 4.36749C14.3587 4.36749 14.0719 4.36703 13.8349 4.38436C13.59 4.40226 13.3415 4.44194 13.096 4.55091L13.7045 5.92195C13.727 5.91198 13.7824 5.8922 13.9442 5.88036C14.1139 5.86796 14.3368 5.86749 14.6875 5.86749V4.36749ZM13.25 7.46124C13.25 7.08764 13.2504 6.84251 13.2624 6.65398C13.274 6.47125 13.2943 6.39442 13.3106 6.35249L11.9115 5.81161C11.8167 6.05682 11.7815 6.30557 11.7654 6.55865C11.7496 6.80592 11.75 7.10681 11.75 7.46124H13.25ZM13.096 4.55091C12.5473 4.79442 12.1271 5.2538 11.9115 5.81161L13.3106 6.35249C13.3909 6.14458 13.5385 5.99561 13.7045 5.92195L13.096 4.55091ZM14.7083 5.11749V3.71124H13.2083V5.11749H14.7083ZM16.125 3.71124V5.11749H17.625V3.71124L16.125 3.71124ZM15.4167 3.05499C15.8338 3.05499 16.125 3.37428 16.125 3.71124L17.625 3.71124C17.625 2.4949 16.6104 1.55499 15.4167 1.55499V3.05499ZM14.7083 3.71124C14.7083 3.37428 14.9995 3.05499 15.4167 3.05499V1.55499C14.223 1.55499 13.2083 2.4949 13.2083 3.71124H14.7083Z"/>
        <path fill="none" d="M9.99634 10.6383H10.0038M6.66675 10.6383H6.67422" stroke="currentColor" stroke-width="1.5" stroke-linecap="round" stroke-linejoin="round"/>
    </symbol>

    <symbol viewBox="0 0 20 21" id="payment-success" fill="none">
        <path stroke="currentColor" d="M11.668 16.0537C11.668 16.0537 12.5013 16.0537 13.3346 17.7203C13.3346 17.7203 15.9817 13.5537 18.3346 12.7203" stroke-width="1.5" stroke-linecap="round" stroke-linejoin="round"/>
        <path stroke="currentColor" d="M4.58398 10.2203H4.5765" stroke-width="1.5" stroke-linecap="round" stroke-linejoin="round"/>
        <path stroke="currentColor" d="M9.16797 16.8877H8.7513C5.61915 16.8877 4.05308 16.8877 3.00752 16.0619C2.84028 15.9299 2.68563 15.7843 2.5453 15.6269C1.66797 14.6428 1.66797 13.1689 1.66797 10.221C1.66797 7.27308 1.66797 5.79913 2.5453 4.81507C2.68563 4.65768 2.84028 4.51212 3.00752 4.38005C4.05308 3.55432 5.61915 3.55432 8.7513 3.55432H11.2513C14.3835 3.55432 15.9495 3.55432 16.9951 4.38005C17.1623 4.51212 17.317 4.65768 17.4573 4.81507C18.2478 5.70169 18.326 6.98598 18.3338 9.38765V9.80432" stroke-width="1.5" stroke-linecap="round" stroke-linejoin="round"/>
        <path stroke="currentColor" d="M12.0846 10.2216C12.0846 11.3722 11.1519 12.305 10.0013 12.305C8.85071 12.305 7.91797 11.3722 7.91797 10.2216C7.91797 9.07105 8.85071 8.13831 10.0013 8.13831C11.1519 8.13831 12.0846 9.07105 12.0846 10.2216Z" stroke-width="1.5"/>
    </symbol>

    <symbol viewBox="0 0 20 21" id="user-group" fill="none">
        <path stroke="currentColor" d="M17.3117 15.6383C17.9361 15.6383 18.4328 15.2454 18.8787 14.6959C19.7916 13.5712 18.2928 12.6723 17.7211 12.2321C17.14 11.7847 16.4912 11.5312 15.8333 11.4716M15 9.80497C16.1506 9.80497 17.0833 8.87223 17.0833 7.72164C17.0833 6.57105 16.1506 5.63831 15 5.63831" stroke-width="1.5" stroke-linecap="round"/>
        <path stroke="currentColor" d="M2.68822 15.6383C2.0638 15.6383 1.56714 15.2454 1.12121 14.6959C0.208326 13.5712 1.70714 12.6723 2.27879 12.2321C2.8599 11.7847 3.50874 11.5312 4.16659 11.4716M4.58325 9.80497C3.43266 9.80497 2.49992 8.87223 2.49992 7.72164C2.49992 6.57105 3.43266 5.63831 4.58325 5.63831" stroke-width="1.5" stroke-linecap="round"/>
        <path stroke="currentColor" d="M6.73642 13.231C5.88494 13.7575 3.65241 14.8326 5.01217 16.1778C5.6764 16.835 6.41619 17.305 7.34627 17.305H12.6536C13.5837 17.305 14.3234 16.835 14.9877 16.1778C16.3474 14.8326 14.1149 13.7575 13.2634 13.231C11.2667 11.9963 8.73313 11.9963 6.73642 13.231Z" stroke-width="1.5" stroke-linecap="round" stroke-linejoin="round"/>
        <path stroke="currentColor" d="M12.9166 6.88829C12.9166 8.49912 11.6107 9.80495 9.99992 9.80495C8.38909 9.80495 7.08325 8.49912 7.08325 6.88829C7.08325 5.27745 8.38909 3.97162 9.99992 3.97162C11.6107 3.97162 12.9166 5.27745 12.9166 6.88829Z" stroke-width="1.5"/>
    </symbol>

    <symbol viewBox="0 0 20 21" id="flag" fill="none">
        <path stroke="currentColor" d="M3.33325 6.47162L3.33325 18.1383" stroke-width="1.5" stroke-linecap="round" stroke-linejoin="round"/>
        <path stroke="currentColor" d="M9.7979 3.89551C7.04355 2.49245 4.87596 3.31451 3.79514 4.1543C3.60032 4.30568 3.50291 4.38137 3.41808 4.5547C3.33325 4.72803 3.33325 4.88946 3.33325 5.2123V12.9149C4.14133 12.0002 6.56558 10.5823 9.7979 12.2288C12.6866 13.7003 15.145 13.0903 16.308 12.4546C16.4693 12.3664 16.55 12.3223 16.6083 12.224C16.6666 12.1257 16.6666 12.019 16.6666 11.8057V5.53321C16.6666 4.84279 16.6666 4.49758 16.5021 4.37252C16.3377 4.24746 15.9529 4.35414 15.1834 4.56751C13.8666 4.93263 11.9519 4.99274 9.7979 3.89551Z" stroke-width="1.5" stroke-linecap="round" stroke-linejoin="round"/>
    </symbol>

    <symbol viewBox="0 0 24 25" id="arrow-up" fill="none">
        <path stroke="currentColor" d="M11.75 21.1383V4.63831" stroke-width="2" stroke-linecap="round" stroke-linejoin="round"/>
        <path stroke="currentColor" d="M5 11.3883L11.75 4.63831L18.5 11.3883" stroke-width="2" stroke-linecap="round" stroke-linejoin="round"/>
    </symbol>

</svg>
